<mxfile host="Electron" agent="Mozilla/5.0 (Windows NT 10.0; Win64; x64) AppleWebKit/537.36 (KHTML, like Gecko) draw.io/24.7.17 Chrome/128.0.6613.36 Electron/32.0.1 Safari/537.36" version="24.7.17">
  <diagram name="Страница — 1" id="iaqO0BB4I6bJeJjOqOjm">
    <mxGraphModel dx="1290" dy="669" grid="1" gridSize="10" guides="1" tooltips="1" connect="1" arrows="1" fold="1" page="1" pageScale="1" pageWidth="827" pageHeight="1169" math="0" shadow="0">
      <root>
        <mxCell id="0" />
        <mxCell id="1" parent="0" />
        <mxCell id="KGIWC4t-tUE2-C8wepvs-1" value="Начало" style="ellipse;whiteSpace=wrap;html=1;" vertex="1" parent="1">
          <mxGeometry x="337.69" y="30" width="81" height="30" as="geometry" />
        </mxCell>
        <mxCell id="KGIWC4t-tUE2-C8wepvs-2" value="" style="endArrow=none;html=1;rounded=0;" edge="1" parent="1">
          <mxGeometry width="50" height="50" relative="1" as="geometry">
            <mxPoint x="378.31" y="100" as="sourcePoint" />
            <mxPoint x="378.31" y="50" as="targetPoint" />
          </mxGeometry>
        </mxCell>
        <mxCell id="KGIWC4t-tUE2-C8wepvs-3" value="" style="endArrow=none;dashed=1;html=1;rounded=0;" edge="1" parent="1">
          <mxGeometry width="50" height="50" relative="1" as="geometry">
            <mxPoint x="379.31" y="70" as="sourcePoint" />
            <mxPoint x="469.31" y="70" as="targetPoint" />
            <Array as="points" />
          </mxGeometry>
        </mxCell>
        <mxCell id="KGIWC4t-tUE2-C8wepvs-4" value="" style="endArrow=none;html=1;rounded=0;" edge="1" parent="1">
          <mxGeometry width="50" height="50" relative="1" as="geometry">
            <mxPoint x="469.31" y="110" as="sourcePoint" />
            <mxPoint x="469.31" y="30" as="targetPoint" />
          </mxGeometry>
        </mxCell>
        <mxCell id="KGIWC4t-tUE2-C8wepvs-5" value="&lt;div&gt;#include &amp;lt;math.h&amp;gt;&lt;/div&gt;#include &amp;lt;iostream&amp;gt;&lt;div&gt;#include &amp;lt;clocale&amp;gt;&lt;/div&gt;&lt;div&gt;#include &amp;lt;ctime&amp;gt;&lt;br&gt;&lt;/div&gt;&lt;div&gt;using namespace std;&lt;/div&gt;&lt;div&gt;&lt;br&gt;&lt;/div&gt;" style="text;html=1;align=left;verticalAlign=middle;whiteSpace=wrap;rounded=0;" vertex="1" parent="1">
          <mxGeometry x="479.31" y="60" width="190" height="30" as="geometry" />
        </mxCell>
        <mxCell id="KGIWC4t-tUE2-C8wepvs-6" value="float factorial(float n)" style="shape=process;whiteSpace=wrap;html=1;backgroundOutline=1;" vertex="1" parent="1">
          <mxGeometry x="303.94" y="100" width="150" height="40" as="geometry" />
        </mxCell>
        <mxCell id="KGIWC4t-tUE2-C8wepvs-7" value="" style="endArrow=none;html=1;rounded=0;" edge="1" parent="1">
          <mxGeometry width="50" height="50" relative="1" as="geometry">
            <mxPoint x="379.31" y="170" as="sourcePoint" />
            <mxPoint x="379.31" y="140" as="targetPoint" />
          </mxGeometry>
        </mxCell>
        <mxCell id="KGIWC4t-tUE2-C8wepvs-8" value="{" style="text;html=1;align=center;verticalAlign=middle;whiteSpace=wrap;rounded=0;" vertex="1" parent="1">
          <mxGeometry x="332.81" y="130" width="35.75" height="30" as="geometry" />
        </mxCell>
        <mxCell id="KGIWC4t-tUE2-C8wepvs-11" value="if (n == 1)" style="rhombus;whiteSpace=wrap;html=1;" vertex="1" parent="1">
          <mxGeometry x="338.94" y="170" width="80" height="40" as="geometry" />
        </mxCell>
        <mxCell id="KGIWC4t-tUE2-C8wepvs-12" value="" style="endArrow=none;html=1;rounded=0;entryX=0;entryY=0.5;entryDx=0;entryDy=0;" edge="1" parent="1" target="KGIWC4t-tUE2-C8wepvs-11">
          <mxGeometry width="50" height="50" relative="1" as="geometry">
            <mxPoint x="280" y="220" as="sourcePoint" />
            <mxPoint x="450" y="240" as="targetPoint" />
            <Array as="points">
              <mxPoint x="280" y="190" />
            </Array>
          </mxGeometry>
        </mxCell>
        <mxCell id="KGIWC4t-tUE2-C8wepvs-13" value="return 1;" style="ellipse;whiteSpace=wrap;html=1;" vertex="1" parent="1">
          <mxGeometry x="250" y="220" width="60" height="30" as="geometry" />
        </mxCell>
        <mxCell id="KGIWC4t-tUE2-C8wepvs-15" value="" style="endArrow=none;html=1;rounded=0;entryX=0.5;entryY=1;entryDx=0;entryDy=0;" edge="1" parent="1" target="KGIWC4t-tUE2-C8wepvs-13">
          <mxGeometry width="50" height="50" relative="1" as="geometry">
            <mxPoint x="380" y="290" as="sourcePoint" />
            <mxPoint x="450" y="240" as="targetPoint" />
            <Array as="points">
              <mxPoint x="380" y="270" />
              <mxPoint x="280" y="270" />
            </Array>
          </mxGeometry>
        </mxCell>
        <mxCell id="KGIWC4t-tUE2-C8wepvs-16" value="" style="endArrow=none;html=1;rounded=0;entryX=1;entryY=0.5;entryDx=0;entryDy=0;" edge="1" parent="1" target="KGIWC4t-tUE2-C8wepvs-11">
          <mxGeometry width="50" height="50" relative="1" as="geometry">
            <mxPoint x="380" y="270" as="sourcePoint" />
            <mxPoint x="450" y="240" as="targetPoint" />
            <Array as="points">
              <mxPoint x="460" y="270" />
              <mxPoint x="460" y="190" />
            </Array>
          </mxGeometry>
        </mxCell>
        <mxCell id="KGIWC4t-tUE2-C8wepvs-17" value="1" style="text;html=1;align=center;verticalAlign=middle;whiteSpace=wrap;rounded=0;" vertex="1" parent="1">
          <mxGeometry x="290" y="160" width="60" height="30" as="geometry" />
        </mxCell>
        <mxCell id="KGIWC4t-tUE2-C8wepvs-18" value="0" style="text;html=1;align=center;verticalAlign=middle;whiteSpace=wrap;rounded=0;" vertex="1" parent="1">
          <mxGeometry x="410" y="160" width="60" height="30" as="geometry" />
        </mxCell>
        <mxCell id="KGIWC4t-tUE2-C8wepvs-19" value="}" style="text;html=1;align=center;verticalAlign=middle;whiteSpace=wrap;rounded=0;" vertex="1" parent="1">
          <mxGeometry x="434.25" y="330" width="35.75" height="30" as="geometry" />
        </mxCell>
        <mxCell id="KGIWC4t-tUE2-C8wepvs-20" value="&#xa;&lt;span style=&quot;color: rgb(0, 0, 0); font-family: Helvetica; font-size: 12px; font-style: normal; font-variant-ligatures: normal; font-variant-caps: normal; font-weight: 400; letter-spacing: normal; orphans: 2; text-align: center; text-indent: 0px; text-transform: none; widows: 2; word-spacing: 0px; -webkit-text-stroke-width: 0px; white-space: normal; background-color: rgb(251, 251, 251); text-decoration-thickness: initial; text-decoration-style: initial; text-decoration-color: initial; display: inline !important; float: none;&quot;&gt;return n * factorial(n - 1);&lt;/span&gt;&#xa;&#xa;" style="ellipse;whiteSpace=wrap;html=1;" vertex="1" parent="1">
          <mxGeometry x="303.94" y="290" width="155.75" height="40" as="geometry" />
        </mxCell>
        <mxCell id="KGIWC4t-tUE2-C8wepvs-21" value="float sum(float n, float x)" style="shape=process;whiteSpace=wrap;html=1;backgroundOutline=1;" vertex="1" parent="1">
          <mxGeometry x="313.19" y="380" width="130" height="40" as="geometry" />
        </mxCell>
        <mxCell id="KGIWC4t-tUE2-C8wepvs-22" value="if (n == 1)" style="rhombus;whiteSpace=wrap;html=1;" vertex="1" parent="1">
          <mxGeometry x="337.69" y="430" width="80" height="50" as="geometry" />
        </mxCell>
        <mxCell id="KGIWC4t-tUE2-C8wepvs-23" value="return 1;" style="ellipse;whiteSpace=wrap;html=1;" vertex="1" parent="1">
          <mxGeometry x="260" y="490" width="60" height="30" as="geometry" />
        </mxCell>
        <mxCell id="KGIWC4t-tUE2-C8wepvs-24" value="return cos(n * x) / (factorial(n)) + sum(n - 1, x);" style="ellipse;whiteSpace=wrap;html=1;" vertex="1" parent="1">
          <mxGeometry x="307.69" y="550" width="140" height="50" as="geometry" />
        </mxCell>
        <mxCell id="KGIWC4t-tUE2-C8wepvs-25" value="" style="endArrow=none;html=1;rounded=0;entryX=0.5;entryY=1;entryDx=0;entryDy=0;exitX=0.5;exitY=0;exitDx=0;exitDy=0;" edge="1" parent="1" source="KGIWC4t-tUE2-C8wepvs-22" target="KGIWC4t-tUE2-C8wepvs-21">
          <mxGeometry width="50" height="50" relative="1" as="geometry">
            <mxPoint x="400" y="290" as="sourcePoint" />
            <mxPoint x="450" y="240" as="targetPoint" />
          </mxGeometry>
        </mxCell>
        <mxCell id="KGIWC4t-tUE2-C8wepvs-26" value="" style="endArrow=none;html=1;rounded=0;entryX=0;entryY=0.5;entryDx=0;entryDy=0;exitX=0.5;exitY=0;exitDx=0;exitDy=0;" edge="1" parent="1" source="KGIWC4t-tUE2-C8wepvs-23" target="KGIWC4t-tUE2-C8wepvs-22">
          <mxGeometry width="50" height="50" relative="1" as="geometry">
            <mxPoint x="388" y="440" as="sourcePoint" />
            <mxPoint x="388" y="430" as="targetPoint" />
            <Array as="points">
              <mxPoint x="290" y="455" />
            </Array>
          </mxGeometry>
        </mxCell>
        <mxCell id="KGIWC4t-tUE2-C8wepvs-27" value="" style="endArrow=none;html=1;rounded=0;entryX=1;entryY=0.5;entryDx=0;entryDy=0;" edge="1" parent="1" target="KGIWC4t-tUE2-C8wepvs-22">
          <mxGeometry width="50" height="50" relative="1" as="geometry">
            <mxPoint x="378" y="530" as="sourcePoint" />
            <mxPoint x="348" y="465" as="targetPoint" />
            <Array as="points">
              <mxPoint x="470" y="530" />
              <mxPoint x="470" y="455" />
            </Array>
          </mxGeometry>
        </mxCell>
        <mxCell id="KGIWC4t-tUE2-C8wepvs-28" value="" style="endArrow=none;html=1;rounded=0;entryX=0.5;entryY=1;entryDx=0;entryDy=0;exitX=0.5;exitY=0;exitDx=0;exitDy=0;" edge="1" parent="1" source="KGIWC4t-tUE2-C8wepvs-24" target="KGIWC4t-tUE2-C8wepvs-23">
          <mxGeometry width="50" height="50" relative="1" as="geometry">
            <mxPoint x="400" y="290" as="sourcePoint" />
            <mxPoint x="450" y="240" as="targetPoint" />
            <Array as="points">
              <mxPoint x="378" y="530" />
              <mxPoint x="290" y="530" />
            </Array>
          </mxGeometry>
        </mxCell>
        <mxCell id="KGIWC4t-tUE2-C8wepvs-29" value="}" style="text;html=1;align=center;verticalAlign=middle;whiteSpace=wrap;rounded=0;" vertex="1" parent="1">
          <mxGeometry x="443.19" y="590" width="35.75" height="30" as="geometry" />
        </mxCell>
        <mxCell id="KGIWC4t-tUE2-C8wepvs-30" value="{" style="text;html=1;align=center;verticalAlign=middle;whiteSpace=wrap;rounded=0;" vertex="1" parent="1">
          <mxGeometry x="314.25" y="420" width="35.75" height="30" as="geometry" />
        </mxCell>
        <mxCell id="KGIWC4t-tUE2-C8wepvs-31" value="0" style="text;html=1;align=center;verticalAlign=middle;whiteSpace=wrap;rounded=0;" vertex="1" parent="1">
          <mxGeometry x="410" y="430" width="60" height="30" as="geometry" />
        </mxCell>
        <mxCell id="KGIWC4t-tUE2-C8wepvs-32" value="1" style="text;html=1;align=center;verticalAlign=middle;whiteSpace=wrap;rounded=0;" vertex="1" parent="1">
          <mxGeometry x="278.94" y="430" width="60" height="30" as="geometry" />
        </mxCell>
        <mxCell id="KGIWC4t-tUE2-C8wepvs-36" value="int main()" style="shape=process;whiteSpace=wrap;html=1;backgroundOutline=1;" vertex="1" parent="1">
          <mxGeometry x="610" y="150" width="110" height="30" as="geometry" />
        </mxCell>
        <mxCell id="KGIWC4t-tUE2-C8wepvs-47" value="return 0;" style="ellipse;whiteSpace=wrap;html=1;" vertex="1" parent="1">
          <mxGeometry x="630" y="450" width="70" height="30" as="geometry" />
        </mxCell>
        <mxCell id="KGIWC4t-tUE2-C8wepvs-48" value="" style="endArrow=none;html=1;rounded=0;entryX=0.5;entryY=1;entryDx=0;entryDy=0;exitX=0.5;exitY=0;exitDx=0;exitDy=0;" edge="1" parent="1" source="KGIWC4t-tUE2-C8wepvs-47" target="KGIWC4t-tUE2-C8wepvs-36">
          <mxGeometry width="50" height="50" relative="1" as="geometry">
            <mxPoint x="490" y="290" as="sourcePoint" />
            <mxPoint x="540" y="240" as="targetPoint" />
          </mxGeometry>
        </mxCell>
        <mxCell id="KGIWC4t-tUE2-C8wepvs-37" value="setlocale(LC_ALL, &quot;RU&quot;);" style="rounded=0;whiteSpace=wrap;html=1;" vertex="1" parent="1">
          <mxGeometry x="595" y="200" width="140" height="20" as="geometry" />
        </mxCell>
        <mxCell id="KGIWC4t-tUE2-C8wepvs-38" value="int n,x;" style="rounded=0;whiteSpace=wrap;html=1;" vertex="1" parent="1">
          <mxGeometry x="630" y="230" width="70" height="20" as="geometry" />
        </mxCell>
        <mxCell id="KGIWC4t-tUE2-C8wepvs-40" value="cout &lt;&lt; &quot;Введите значение x (в радианах): &quot;;" style="shape=parallelogram;perimeter=parallelogramPerimeter;whiteSpace=wrap;html=1;fixedSize=1;" vertex="1" parent="1">
          <mxGeometry x="555" y="260" width="220" height="30" as="geometry" />
        </mxCell>
        <mxCell id="KGIWC4t-tUE2-C8wepvs-42" value="cin &gt;&gt; x;" style="shape=parallelogram;perimeter=parallelogramPerimeter;whiteSpace=wrap;html=1;fixedSize=1;" vertex="1" parent="1">
          <mxGeometry x="625" y="300" width="80" height="30" as="geometry" />
        </mxCell>
        <mxCell id="KGIWC4t-tUE2-C8wepvs-43" value="cout &lt;&lt; &quot;Введите значение n: &quot;;" style="shape=parallelogram;perimeter=parallelogramPerimeter;whiteSpace=wrap;html=1;fixedSize=1;" vertex="1" parent="1">
          <mxGeometry x="595" y="340" width="140" height="30" as="geometry" />
        </mxCell>
        <mxCell id="KGIWC4t-tUE2-C8wepvs-44" value="cin &gt;&gt; n;" style="shape=parallelogram;perimeter=parallelogramPerimeter;whiteSpace=wrap;html=1;fixedSize=1;" vertex="1" parent="1">
          <mxGeometry x="625" y="380" width="80" height="20" as="geometry" />
        </mxCell>
        <mxCell id="KGIWC4t-tUE2-C8wepvs-45" value="cout &lt;&lt; sum(n, x)+1;" style="shape=parallelogram;perimeter=parallelogramPerimeter;whiteSpace=wrap;html=1;fixedSize=1;" vertex="1" parent="1">
          <mxGeometry x="595" y="410" width="140" height="30" as="geometry" />
        </mxCell>
      </root>
    </mxGraphModel>
  </diagram>
</mxfile>
